<svg stroke-miterlimit="10"
    style="fill-rule:nonzero;clip-rule:evenodd;stroke-linecap:round;stroke-linejoin:round"
    viewBox="0 0 1080 1330.43" xml:space="preserve" xmlns="http://www.w3.org/2000/svg"><defs><linearGradient gradientTransform="matrix(427.118 368.132 -620.22 324.961 352.101 527.752)" gradientUnits="userSpaceOnUse" id="b" x1="0" x2="1" y1="0" y2="0"><stop offset="0" stop-color="#17181a"/><stop offset=".998" stop-color="#131313"/></linearGradient><linearGradient gradientTransform="matrix(241.898 1214.07 -351.261 1071.7 283.993 562.38)" gradientUnits="userSpaceOnUse" id="d" x1="0" x2="1" y1="0" y2="0"><stop offset="0" stop-color="#17181a"/><stop offset="1" stop-color="#131313"/></linearGradient><linearGradient gradientTransform="matrix(154.849 1214.07 -224.857 1071.7 753.112 564.715)" gradientUnits="userSpaceOnUse" id="f" x1="0" x2="1" y1="0" y2="0"><stop offset="0" stop-color="#161719"/><stop offset="1" stop-color="#131313"/></linearGradient><linearGradient gradientTransform="scale(145.2128) rotate(52.206 -5.008 8.909)" gradientUnits="userSpaceOnUse" id="h" x1="0" x2="1" y1="0" y2="0"><stop offset="0" stop-color="#e07728"/><stop offset="1" stop-color="#8e4006"/></linearGradient><linearGradient gradientTransform="scale(145.2128) rotate(52.206 -4.099 8.463)" gradientUnits="userSpaceOnUse" id="i" x1="0" x2="1" y1="0" y2="0"><stop offset="0" stop-color="#e07728"/><stop offset="1" stop-color="#8e4006"/></linearGradient><linearGradient gradientTransform="scale(145.2128) rotate(52.206 -3.19 8.018)" gradientUnits="userSpaceOnUse" id="j" x1="0" x2="1" y1="0" y2="0"><stop offset="0" stop-color="#e07728"/><stop offset="1" stop-color="#8e4006"/></linearGradient><linearGradient gradientTransform="scale(-223.44864) rotate(-89.115 -2.857 -.91)" gradientUnits="userSpaceOnUse" id="k" x1="0" x2="1" y1="0" y2="0"><stop offset="0" stop-color="#f9d157"/><stop offset="1" stop-color="#f2b710"/></linearGradient><linearGradient gradientTransform="matrix(385.722 .89107 -1.86519 184.273 288.579 1158.3)" gradientUnits="userSpaceOnUse" id="l" x1="0" x2="1" y1="0" y2="0"><stop offset="0" stop-color="#949494"/><stop offset="1" stop-color="#131313" stop-opacity=".007"/></linearGradient><linearGradient gradientTransform="matrix(385.722 .89107 -1.86519 184.273 288.579 1112.11)" gradientUnits="userSpaceOnUse" id="m" x1="0" x2="1" y1="0" y2="0"><stop offset="0" stop-color="#949494"/><stop offset="1" stop-color="#131313" stop-opacity=".007"/></linearGradient><linearGradient gradientTransform="rotate(.277 -236550.537 177197.217) scale(167.73496)" gradientUnits="userSpaceOnUse" id="n" x1="0" x2="1" y1="0" y2="0"><stop offset="0" stop-color="#949494"/><stop offset="1" stop-color="#131313" stop-opacity=".007"/></linearGradient><linearGradient gradientTransform="rotate(.277 -227895.917 177176.303) scale(167.73496)" gradientUnits="userSpaceOnUse" id="o" x1="0" x2="1" y1="0" y2="0"><stop offset="0" stop-color="#949494"/><stop offset="1" stop-color="#131313" stop-opacity=".007"/></linearGradient><linearGradient gradientTransform="rotate(.277 -208910.819 176593.567) scale(167.73496)" gradientUnits="userSpaceOnUse" id="p" x1="0" x2="1" y1="0" y2="0"><stop offset="0" stop-color="#949494"/><stop offset="1" stop-color="#131313" stop-opacity=".007"/></linearGradient><linearGradient gradientTransform="rotate(.277 -200254.958 176572.65) scale(167.73496)" gradientUnits="userSpaceOnUse" id="q" x1="0" x2="1" y1="0" y2="0"><stop offset="0" stop-color="#949494"/><stop offset="1" stop-color="#131313" stop-opacity=".007"/></linearGradient><linearGradient gradientTransform="rotate(.277 -181401.211 176661.305) scale(167.73496)" gradientUnits="userSpaceOnUse" id="r" x1="0" x2="1" y1="0" y2="0"><stop offset="0" stop-color="#949494"/><stop offset="1" stop-color="#131313" stop-opacity=".007"/></linearGradient><linearGradient gradientTransform="rotate(.277 -172746.177 176640.39) scale(167.73496)" gradientUnits="userSpaceOnUse" id="s" x1="0" x2="1" y1="0" y2="0"><stop offset="0" stop-color="#949494"/><stop offset="1" stop-color="#131313" stop-opacity=".007"/></linearGradient><filter color-interpolation-filters="sRGB" filterUnits="userSpaceOnUse" height="221.302" id="c" width="902.313" x="160.081" y="572.8"><feDropShadow dx="16.69" dy="26.186" flood-color="#000" flood-opacity=".63" in="SourceGraphic" result="Shadow" stdDeviation="16.431"/></filter><filter color-interpolation-filters="sRGB" filterUnits="userSpaceOnUse" height="538.756" id="e" width="547.084" x="164.45" y="746.315"><feDropShadow dx="16.69" dy="26.186" flood-color="#000" flood-opacity=".63" in="SourceGraphic" result="Shadow" stdDeviation="16.431"/></filter><filter color-interpolation-filters="sRGB" filterUnits="userSpaceOnUse" height="538.756" id="g" width="380.135" x="667.631" y="748.65"><feDropShadow dx="16.69" dy="26.186" flood-color="#000" flood-opacity=".63" in="SourceGraphic" result="Shadow" stdDeviation="16.431"/></filter></defs><clipPath id="a"><path d="M0 0h1080v1330.43H0z"/></clipPath><g clip-path="url(#a)"><path d="M434.529 38.085c0-11.645 9.439-21.084 21.084-21.084H1093.4c11.65 0 21.09 9.44 21.09 21.084V1274.25c0 11.65-9.44 21.09-21.09 21.09H455.613c-11.645 0-21.084-9.44-21.084-21.09V38.085Z" fill="#202224" opacity=".944" stroke="#46494c" stroke-linecap="butt"/><g opacity=".564"><g opacity="1" fill="#46494c"><path d="M798.412 1248.97c0-9.65 7.821-17.47 17.469-17.47h229.849c9.65 0 17.47 7.82 17.47 17.47v.06c0 9.65-7.82 17.47-17.47 17.47H815.881c-9.648 0-17.469-7.82-17.469-17.47v-.06ZM561.14 1248.97c0-9.65 7.822-17.47 17.47-17.47h183.883c9.648 0 17.469 7.82 17.469 17.47v.06c0 9.65-7.821 17.47-17.469 17.47H578.61c-9.648 0-17.47-7.82-17.47-17.47v-.06ZM472.512 1256.38c-4.071-4.08-4.071-10.68 0-14.75l18.625-18.62a10.411 10.411 0 0 1 14.745 0l18.625 18.62c4.072 4.07 4.072 10.67 0 14.75L505.882 1275c-4.071 4.07-10.673 4.07-14.745 0l-18.625-18.62Z" opacity=".822"/></g><g opacity="1"><path d="M798.288 1167.56c0-9.65 7.821-17.47 17.47-17.47h229.852c9.64 0 17.47 7.82 17.47 17.47v.06c0 9.65-7.83 17.47-17.47 17.47H815.758c-9.649 0-17.47-7.82-17.47-17.47v-.06ZM561.017 1167.56c0-9.65 7.821-17.47 17.47-17.47h183.882c9.648 0 17.47 7.82 17.47 17.47v.06c0 9.65-7.822 17.47-17.47 17.47H578.487c-9.649 0-17.47-7.82-17.47-17.47v-.06ZM472.389 1174.96c-4.072-4.07-4.072-10.67 0-14.74l18.625-18.63c4.071-4.07 10.673-4.07 14.745 0l18.625 18.63c4.071 4.07 4.071 10.67 0 14.74l-18.625 18.63c-4.072 4.07-10.674 4.07-14.745 0l-18.625-18.63Z" fill="#46494c" opacity=".822"/><path d="M434.624 1205.77h641.786" fill="none" opacity="1" stroke="#46494c" stroke-linecap="butt"/></g><g opacity="1"><path d="M798.288 1086.15c0-9.65 7.821-17.47 17.47-17.47h229.852c9.64 0 17.47 7.82 17.47 17.47v.06c0 9.65-7.83 17.47-17.47 17.47H815.758c-9.649 0-17.47-7.82-17.47-17.47v-.06ZM561.017 1086.15c0-9.65 7.821-17.47 17.47-17.47h183.882c9.648 0 17.47 7.82 17.47 17.47v.06c0 9.65-7.822 17.47-17.47 17.47H578.487c-9.649 0-17.47-7.82-17.47-17.47v-.06ZM472.389 1093.55c-4.072-4.07-4.072-10.67 0-14.74l18.625-18.63c4.071-4.07 10.673-4.07 14.745 0l18.625 18.63c4.071 4.07 4.071 10.67 0 14.74l-18.625 18.63c-4.072 4.07-10.674 4.07-14.745 0l-18.625-18.63Z" fill="#46494c" opacity=".822"/><path d="M434.624 1124.36h641.786" fill="none" opacity="1" stroke="#46494c" stroke-linecap="butt"/></g><g opacity="1"><path d="M798.288 1004.74c0-9.651 7.821-17.473 17.47-17.473h229.852c9.64 0 17.47 7.822 17.47 17.473v.06c0 9.65-7.83 17.47-17.47 17.47H815.758c-9.649 0-17.47-7.82-17.47-17.47v-.06ZM561.017 1004.74c0-9.651 7.821-17.473 17.47-17.473h183.882c9.648 0 17.47 7.822 17.47 17.473v.06c0 9.65-7.822 17.47-17.47 17.47H578.487c-9.649 0-17.47-7.82-17.47-17.47v-.06ZM472.389 1012.14c-4.072-4.07-4.072-10.67 0-14.745l18.625-18.625c4.071-4.072 10.673-4.072 14.745 0l18.625 18.625c4.071 4.075 4.071 10.675 0 14.745l-18.625 18.62a10.411 10.411 0 0 1-14.745 0l-18.625-18.62Z" fill="#46494c" opacity=".822"/><path d="M434.624 1042.95h641.786" fill="none" opacity="1" stroke="#46494c" stroke-linecap="butt"/></g><g opacity="1"><path d="M798.288 923.325c0-9.648 7.821-17.47 17.47-17.47h229.852c9.64 0 17.47 7.822 17.47 17.47v.06c0 9.649-7.83 17.47-17.47 17.47H815.758c-9.649 0-17.47-7.821-17.47-17.47v-.06ZM561.017 923.325c0-9.648 7.821-17.47 17.47-17.47h183.882c9.648 0 17.47 7.822 17.47 17.47v.06c0 9.649-7.822 17.47-17.47 17.47H578.487c-9.649 0-17.47-7.821-17.47-17.47v-.06ZM472.389 930.728c-4.072-4.072-4.072-10.674 0-14.745l18.625-18.625c4.071-4.072 10.673-4.072 14.745 0l18.625 18.625c4.071 4.071 4.071 10.673 0 14.745l-18.625 18.625c-4.072 4.071-10.674 4.071-14.745 0l-18.625-18.625Z" fill="#46494c" opacity=".822"/><path d="M434.624 961.535h641.786" fill="none" opacity="1" stroke="#46494c" stroke-linecap="butt"/></g><g opacity="1"><path d="M798.288 841.913c0-9.648 7.821-17.47 17.47-17.47h229.852c9.64 0 17.47 7.822 17.47 17.47v.06c0 9.649-7.83 17.47-17.47 17.47H815.758c-9.649 0-17.47-7.821-17.47-17.47v-.06ZM561.017 841.913c0-9.648 7.821-17.47 17.47-17.47h183.882c9.648 0 17.47 7.822 17.47 17.47v.06c0 9.649-7.822 17.47-17.47 17.47H578.487c-9.649 0-17.47-7.821-17.47-17.47v-.06ZM472.389 849.316c-4.072-4.072-4.072-10.674 0-14.745l18.625-18.625c4.071-4.072 10.673-4.072 14.745 0l18.625 18.625c4.071 4.071 4.071 10.673 0 14.745l-18.625 18.625c-4.072 4.071-10.674 4.071-14.745 0l-18.625-18.625Z" fill="#46494c" opacity=".822"/><path d="M434.624 880.123h641.786" fill="none" opacity="1" stroke="#46494c" stroke-linecap="butt"/></g><g opacity="1"><path d="M798.288 760.501c0-9.648 7.821-17.47 17.47-17.47h229.852c9.64 0 17.47 7.822 17.47 17.47v.06c0 9.649-7.83 17.47-17.47 17.47H815.758c-9.649 0-17.47-7.821-17.47-17.47v-.06ZM561.017 760.501c0-9.648 7.821-17.47 17.47-17.47h183.882c9.648 0 17.47 7.822 17.47 17.47v.06c0 9.649-7.822 17.47-17.47 17.47H578.487c-9.649 0-17.47-7.821-17.47-17.47v-.06ZM472.389 767.904c-4.072-4.072-4.072-10.674 0-14.745l18.625-18.625c4.071-4.072 10.673-4.072 14.745 0l18.625 18.625c4.071 4.071 4.071 10.673 0 14.745l-18.625 18.625c-4.072 4.071-10.674 4.071-14.745 0l-18.625-18.625Z" fill="#46494c" opacity=".822"/><path d="M434.624 798.711h641.786" fill="none" opacity="1" stroke="#46494c" stroke-linecap="butt"/></g><g opacity="1"><path d="M798.288 679.089c0-9.648 7.821-17.47 17.47-17.47h229.852c9.64 0 17.47 7.822 17.47 17.47v.06c0 9.649-7.83 17.47-17.47 17.47H815.758c-9.649 0-17.47-7.821-17.47-17.47v-.06ZM561.017 679.089c0-9.648 7.821-17.47 17.47-17.47h183.882c9.648 0 17.47 7.822 17.47 17.47v.06c0 9.649-7.822 17.47-17.47 17.47H578.487c-9.649 0-17.47-7.821-17.47-17.47v-.06ZM472.389 686.492c-4.072-4.072-4.072-10.674 0-14.745l18.625-18.625c4.071-4.072 10.673-4.072 14.745 0l18.625 18.625c4.071 4.071 4.071 10.673 0 14.745l-18.625 18.625c-4.072 4.071-10.674 4.071-14.745 0l-18.625-18.625Z" fill="#46494c" opacity=".822"/><path d="M434.624 717.299h641.786" fill="none" opacity="1" stroke="#46494c" stroke-linecap="butt"/></g><g opacity="1"><path d="M798.288 597.677c0-9.648 7.821-17.47 17.47-17.47h229.852c9.64 0 17.47 7.822 17.47 17.47v.06c0 9.649-7.83 17.47-17.47 17.47H815.758c-9.649 0-17.47-7.821-17.47-17.47v-.06ZM561.017 597.677c0-9.648 7.821-17.47 17.47-17.47h183.882c9.648 0 17.47 7.822 17.47 17.47v.06c0 9.649-7.822 17.47-17.47 17.47H578.487c-9.649 0-17.47-7.821-17.47-17.47v-.06ZM472.389 605.079c-4.072-4.071-4.072-10.673 0-14.744l18.625-18.625c4.071-4.072 10.673-4.072 14.745 0l18.625 18.625c4.071 4.071 4.071 10.673 0 14.744l-18.625 18.626c-4.072 4.071-10.674 4.071-14.745 0l-18.625-18.626Z" fill="#46494c" opacity=".822"/><path d="M434.624 635.887h641.786" fill="none" opacity="1" stroke="#46494c" stroke-linecap="butt"/></g><g opacity="1"><path d="M798.288 516.265c0-9.648 7.821-17.47 17.47-17.47h229.852c9.64 0 17.47 7.822 17.47 17.47v.06c0 9.649-7.83 17.47-17.47 17.47H815.758c-9.649 0-17.47-7.821-17.47-17.47v-.06ZM561.017 516.265c0-9.648 7.821-17.47 17.47-17.47h183.882c9.648 0 17.47 7.822 17.47 17.47v.06c0 9.649-7.822 17.47-17.47 17.47H578.487c-9.649 0-17.47-7.821-17.47-17.47v-.06ZM472.389 523.667c-4.072-4.071-4.072-10.673 0-14.744l18.625-18.625c4.071-4.072 10.673-4.072 14.745 0l18.625 18.625c4.071 4.071 4.071 10.673 0 14.744l-18.625 18.626c-4.072 4.071-10.674 4.071-14.745 0l-18.625-18.626Z" fill="#46494c" opacity=".822"/><path d="M434.624 554.475h641.786" fill="none" opacity="1" stroke="#46494c" stroke-linecap="butt"/></g><g opacity="1"><path d="M798.288 434.853c0-9.648 7.821-17.47 17.47-17.47h229.852c9.64 0 17.47 7.822 17.47 17.47v.06c0 9.648-7.83 17.47-17.47 17.47H815.758c-9.649 0-17.47-7.822-17.47-17.47v-.06ZM561.017 434.853c0-9.648 7.821-17.47 17.47-17.47h183.882c9.648 0 17.47 7.822 17.47 17.47v.06c0 9.648-7.822 17.47-17.47 17.47H578.487c-9.649 0-17.47-7.822-17.47-17.47v-.06ZM472.389 442.255c-4.072-4.071-4.072-10.673 0-14.744l18.625-18.625c4.071-4.072 10.673-4.072 14.745 0l18.625 18.625c4.071 4.071 4.071 10.673 0 14.744l-18.625 18.625c-4.072 4.072-10.674 4.072-14.745 0l-18.625-18.625Z" fill="#dcdddd" opacity="1"/><path d="M434.624 473.063h641.786" fill="none" opacity="1" stroke="#46494c" stroke-linecap="butt"/></g><g opacity="1"><path d="M798.288 114.8c0-9.648 7.821-17.47 17.47-17.47h229.852c9.64 0 17.47 7.822 17.47 17.47v.06c0 9.649-7.83 17.47-17.47 17.47H815.758c-9.649 0-17.47-7.821-17.47-17.47v-.06ZM561.017 114.8c0-9.648 7.821-17.47 17.47-17.47h183.882c9.648 0 17.47 7.822 17.47 17.47v.06c0 9.649-7.822 17.47-17.47 17.47H578.487c-9.649 0-17.47-7.821-17.47-17.47v-.06ZM472.389 122.203c-4.072-4.072-4.072-10.674 0-14.745l18.625-18.625c4.071-4.072 10.673-4.072 14.745 0l18.625 18.625c4.071 4.071 4.071 10.673 0 14.745l-18.625 18.625c-4.072 4.071-10.674 4.071-14.745 0l-18.625-18.625Z" fill="#46494c" opacity=".822"/><path d="M434.624 153.01h641.786" fill="none" opacity="1" stroke="#46494c" stroke-linecap="butt"/></g><g opacity="1"><path d="M798.288 194.44c0-9.648 7.821-17.47 17.47-17.47h229.852c9.64 0 17.47 7.822 17.47 17.47v.061c0 9.648-7.83 17.469-17.47 17.469H815.758c-9.649 0-17.47-7.821-17.47-17.469v-.061ZM561.017 194.44c0-9.648 7.821-17.47 17.47-17.47h183.882c9.648 0 17.47 7.822 17.47 17.47v.061c0 9.648-7.822 17.469-17.47 17.469H578.487c-9.649 0-17.47-7.821-17.47-17.469v-.061ZM472.389 201.843c-4.072-4.072-4.072-10.673 0-14.745l18.625-18.625c4.071-4.072 10.673-4.072 14.745 0l18.625 18.625c4.071 4.072 4.071 10.673 0 14.745l-18.625 18.625c-4.072 4.072-10.674 4.072-14.745 0l-18.625-18.625Z" fill="#46494c" opacity=".822"/><path d="M434.624 232.65h641.786" fill="none" opacity="1" stroke="#46494c" stroke-linecap="butt"/></g><g opacity="1"><path d="M798.288 275.081c0-9.649 7.821-17.47 17.47-17.47h229.852c9.64 0 17.47 7.821 17.47 17.47v.06c0 9.648-7.83 17.47-17.47 17.47H815.758c-9.649 0-17.47-7.822-17.47-17.47v-.06ZM561.017 275.081c0-9.649 7.821-17.47 17.47-17.47h183.882c9.648 0 17.47 7.821 17.47 17.47v.06c0 9.648-7.822 17.47-17.47 17.47H578.487c-9.649 0-17.47-7.822-17.47-17.47v-.06ZM472.389 282.483c-4.072-4.072-4.072-10.673 0-14.745l18.625-18.625c4.071-4.071 10.673-4.071 14.745 0l18.625 18.625c4.071 4.072 4.071 10.673 0 14.745l-18.625 18.625c-4.072 4.072-10.674 4.072-14.745 0l-18.625-18.625Z" fill="#46494c" opacity=".822"/><path d="M434.624 313.291h641.786" fill="none" opacity="1" stroke="#46494c" stroke-linecap="butt"/></g><g opacity="1"><path d="M798.288 353.441c0-9.649 7.821-17.47 17.47-17.47h229.852c9.64 0 17.47 7.821 17.47 17.47v.06c0 9.648-7.83 17.47-17.47 17.47H815.758c-9.649 0-17.47-7.822-17.47-17.47v-.06ZM561.017 353.441c0-9.649 7.821-17.47 17.47-17.47h183.882c9.648 0 17.47 7.821 17.47 17.47v.06c0 9.648-7.822 17.47-17.47 17.47H578.487c-9.649 0-17.47-7.822-17.47-17.47v-.06ZM472.389 360.843c-4.072-4.071-4.072-10.673 0-14.744l18.625-18.626c4.071-4.071 10.673-4.071 14.745 0l18.625 18.626c4.071 4.071 4.071 10.673 0 14.744l-18.625 18.625c-4.072 4.072-10.674 4.072-14.745 0l-18.625-18.625Z" fill="#46494c" opacity=".822"/><path d="M434.624 391.651h641.786" fill="none" opacity="1" stroke="#46494c" stroke-linecap="butt"/></g></g></g><path d="M184.968 623.186c0-19.327 15.667-34.994 34.994-34.994h749.17c19.327 0 34.998 15.667 34.998 34.994v68.159c0 19.327-15.671 34.994-34.998 34.994h-749.17c-19.327 0-34.994-15.667-34.994-34.994v-68.159Z" fill="url(#b)" filter="url(#c)" stroke="#606265" stroke-linecap="butt"/><path d="M189.338 796.7c0-19.327 15.667-34.994 34.994-34.994h393.941c19.326 0 34.994 15.667 34.994 34.994v385.61c0 19.33-15.668 35-34.994 35H224.332c-19.327 0-34.994-15.67-34.994-35V796.7Z" fill="url(#d)" filter="url(#e)" stroke="#606265" stroke-linecap="butt"/><g stroke-linecap="butt"><path d="M692.519 799.035c0-19.327 15.667-34.994 34.994-34.994h226.992c19.327 0 34.994 15.667 34.994 34.994v385.615c0 19.32-15.667 34.99-34.994 34.99H727.513c-19.327 0-34.994-15.67-34.994-34.99V799.035Z" fill="url(#f)" filter="url(#g)" stroke="#606265"/><g stroke="#f4b394" stroke-width="5.475"><path d="M733.119 1072.35h97.78v97.78h-97.78v-97.78Z" fill="url(#h)"/><path d="M733.119 942.952h97.78v97.778h-97.78v-97.778Z" fill="url(#i)"/><path d="M733.119 813.55h97.78v97.779h-97.78V813.55Z" fill="url(#j)"/></g></g><path d="m294.942 619.642 54.32-54.321 54.321 54.321-54.321 54.32-54.32-54.32Z" fill="#d5d5d5" stroke="#ababab" stroke-linecap="butt" stroke-width="5.475"/><path d="m355.086 560.277 54.32-54.32 54.321 54.32-54.321 54.321-54.32-54.321Z" fill="#dba83f" stroke="#fac584" stroke-linecap="butt" stroke-width="5.475"/><path d="m294.999 501.077 54.321-54.32 54.32 54.32-54.32 54.321-54.321-54.321Z" fill="#db3f3f" stroke="#fa8484" stroke-linecap="butt" stroke-width="5.475"/><path d="m235.009 560.312 54.321-54.321 54.32 54.321-54.32 54.32-54.321-54.32Z" fill="#3f55db" stroke="#84b8fa" stroke-linecap="butt" stroke-width="5.475"/><path d="m287.306 936.616 138.911-138.911 138.911 138.911-138.911 138.914-138.911-138.914Z" fill="url(#k)" stroke="#040301" stroke-linecap="butt" stroke-width="5.475"/><path d="M389.443 870.121c-23.375 12.962-39.219 37.878-39.219 66.5 0 .168.03.331.031.5l73.781-.25-34.593-66.75Zm74.125.343-39.125 67.188-.219-.406-39.594 62.934c11.956 7.84 26.23 12.44 41.594 12.44 15.374 0 29.665-4.59 41.625-12.44l-43.094-62.903 77.375-2.75c-.749-27.5-16.077-51.337-38.562-64.063Z"/><path d="M288.579 1156.96c0-6.64 5.384-12.02 12.025-12.02h257.221c6.642 0 12.025 5.38 12.025 12.02v2.68c0 6.64-5.383 12.03-12.025 12.03H300.604c-6.641 0-12.025-5.39-12.025-12.03v-2.68Z" fill="url(#l)"/><path d="M288.579 1110.77c0-6.64 5.384-12.02 12.025-12.02h257.221c6.642 0 12.025 5.38 12.025 12.02v2.69c0 6.64-5.383 12.02-12.025 12.02H300.604c-6.641 0-12.025-5.38-12.025-12.02v-2.69Z" fill="url(#m)"/><path d="M854.08 1145.78c0-6.64 5.383-12.02 12.025-12.02h98.262c6.641 0 12.025 5.38 12.025 12.02v.29c0 6.64-5.384 12.02-12.025 12.02h-98.262c-6.642 0-12.025-5.38-12.025-12.02v-.29Z" fill="url(#n)"/><path d="M854.08 1103.93c0-6.64 5.383-12.02 12.025-12.02h98.262c6.641 0 12.025 5.38 12.025 12.02v.28c0 6.64-5.384 12.03-12.025 12.03h-98.262c-6.642 0-12.025-5.39-12.025-12.03v-.28Z" fill="url(#o)"/><path d="M851.484 1012.11c0-6.64 5.384-12.02 12.025-12.02h98.263c6.641 0 12.024 5.38 12.024 12.02v.29c0 6.64-5.383 12.02-12.024 12.02h-98.263c-6.641 0-12.025-5.38-12.025-12.02v-.29Z" fill="url(#p)"/><path d="M851.484 970.262c0-6.641 5.384-12.024 12.025-12.024h98.263c6.641 0 12.024 5.383 12.024 12.024v.283c0 6.642-5.383 12.025-12.024 12.025h-98.263c-6.641 0-12.025-5.383-12.025-12.025v-.283Z" fill="url(#q)"/><path d="M852.133 879.096c0-6.641 5.384-12.025 12.025-12.025h98.262c6.642 0 12.025 5.384 12.025 12.025v.283c0 6.641-5.383 12.025-12.025 12.025h-98.262c-6.641 0-12.025-5.384-12.025-12.025v-.283Z" fill="url(#r)"/><path d="M852.133 837.244c0-6.641 5.384-12.025 12.025-12.025h98.262c6.642 0 12.025 5.384 12.025 12.025v.283c0 6.641-5.383 12.025-12.025 12.025h-98.262c-6.641 0-12.025-5.384-12.025-12.025v-.283Z" fill="url(#s)"/></svg>