<svg
  stroke-miterlimit="10"
  style="fill-rule:nonzero;clip-rule:evenodd;stroke-linecap:round;stroke-linejoin:round"
  viewBox="6.05 7.562 244.086 64.347"
  xml:space="preserve"
  xmlns="http://www.w3.org/2000/svg"
><clipPath id="a"><path d="M6.05 7.562h244.086v64.347H6.05z"></path></clipPath><g
    ><g
      fill="#fff"
      stroke="#fff"
      stroke-linecap="butt"
      stroke-width="1.249"
      clip-path="url(#a)"
      ><path
        d="m6.713 9.56 10.615.073c-.02 10.626 10.026 14.383 10.026 14.383l.145-14.284 10.5-.002-.002 14.275s9.68-2.863 10.023-14.374l10.593-.004c-.005 20.127-19.878 25.289-19.878 25.289l19.85.033.041 10.543-19.577-.044s19.293 4.66 19.563 25.31l-10.46-.135C47.45 59.09 38.009 56.247 38.009 56.247l.053 14.503-10.669.035-.03-14.523s-9.778 3.462-10.082 14.5l-10.606-.09C6.938 50.435 26.532 45.53 26.532 45.53l-19.802.02.048-10.66 19.871.08S7.732 30.649 6.713 9.56Z"
      ></path><path
        d="m82.05 9.121.15 35.427C81.97 72.162 108.37 71.22 108.37 71.22s26.263 1.752 27.088-26.365l.01-35.731-10.913-.044-.026 35.636c-1.411 18.999-16.526 16.358-16.526 16.358s-14.22 1.017-14.697-16.26l.006-35.722-11.261.03Z"
      ></path><path
        d="M139.268 9.255v9.567l20.213-.034.114 51.423 11.236.038-.158-51.593 20.421.078-.048-9.593-51.778.114Z"
      ></path><path
        d="m195.287 9.086.043 61.081 11.159.097-.002-41.478 33.953 41.468 9.071-.096-.04-61.052-11.115-.041-.019 41.415-33.798-41.336-9.252-.058Z"
      ></path><path d="m71.966 8.186.03 63.098"></path></g></g></svg>