<svg
  stroke-miterlimit="10"
  style="fill-rule:nonzero;clip-rule:evenodd;stroke-linecap:round;stroke-linejoin:round"
  viewBox="0 0 267.769 90.487"
  xml:space="preserve"
  xmlns="http://www.w3.org/2000/svg"
  xmlns:vectornator="http://vectornator.io"
><defs
    ><linearGradient
      gradientTransform="rotate(90.477 58.664 75.001) scale(51.31348)"
      gradientUnits="userSpaceOnUse"
      id="c"
      x1="0"
      x2="1"
      y1="0"
      y2="0"
      ><stop offset="0" stop-color="#822e2e"></stop><stop
        offset="1"
        stop-opacity=".092"></stop></linearGradient><linearGradient
      gradientTransform="scale(-41.56274) rotate(-89.523 -1.226 .702)"
      gradientUnits="userSpaceOnUse"
      id="e"
      x1="0"
      x2="1"
      y1="0"
      y2="0"
      ><stop offset="0" stop-color="#2e8267"></stop><stop
        offset="1"
        stop-opacity=".092"></stop></linearGradient><linearGradient
      gradientTransform="scale(-41.56274) rotate(-89.523 -2.535 2.023)"
      gradientUnits="userSpaceOnUse"
      id="g"
      x1="0"
      x2="1"
      y1="0"
      y2="0"
      ><stop offset="0" stop-color="#2e5282"></stop><stop
        offset="1"
        stop-opacity=".092"></stop></linearGradient><linearGradient
      gradientTransform="scale(-34.4619) rotate(-89.523 -.88 .108)"
      gradientUnits="userSpaceOnUse"
      id="i"
      x1="0"
      x2="1"
      y1="0"
      y2="0"
      ><stop offset="0" stop-color="#82702e"></stop><stop
        offset="1"
        stop-opacity=".092"></stop></linearGradient><linearGradient
      gradientTransform="scale(-34.4619) rotate(-89.523 -3.785 3.041)"
      gradientUnits="userSpaceOnUse"
      id="k"
      x1="0"
      x2="1"
      y1="0"
      y2="0"
      ><stop offset="0" stop-color="#824e2e"></stop><stop
        offset="1"
        stop-opacity=".092"></stop></linearGradient><filter
      color-interpolation-filters="sRGB"
      filterUnits="userSpaceOnUse"
      height="91.459"
      id="b"
      width="96.985"
      x="84.718"
      y="3.716"
      ><feGaussianBlur in="SourceGraphic" result="Blur" stdDeviation="8.236"
      ></feGaussianBlur></filter><filter
      color-interpolation-filters="sRGB"
      filterUnits="userSpaceOnUse"
      height="81.905"
      id="d"
      width="86.381"
      x="35.763"
      y="7.355"
      ><feGaussianBlur in="SourceGraphic" result="Blur" stdDeviation="8.236"
      ></feGaussianBlur></filter><filter
      color-interpolation-filters="sRGB"
      filterUnits="userSpaceOnUse"
      height="81.905"
      id="f"
      width="86.381"
      x="144.63"
      y="7.355"
      ><feGaussianBlur in="SourceGraphic" result="Blur" stdDeviation="8.236"
      ></feGaussianBlur></filter><filter
      color-interpolation-filters="sRGB"
      filterUnits="userSpaceOnUse"
      height="74.948"
      id="h"
      width="78.659"
      x="-9.123"
      y="9.067"
      ><feGaussianBlur in="SourceGraphic" result="Blur" stdDeviation="8.236"
      ></feGaussianBlur></filter><filter
      color-interpolation-filters="sRGB"
      filterUnits="userSpaceOnUse"
      height="74.948"
      id="j"
      width="78.659"
      x="198.552"
      y="9.167"
      ><feGaussianBlur in="SourceGraphic" result="Blur" stdDeviation="8.236"
      ></feGaussianBlur></filter></defs><clipPath id="a"><path d="M0 0h267.769v90.487H0z"></path></clipPath><g
    clip-path="url(#a)"
    vectornator:layerName="Capa 1"
    ><g vectornator:layerName="Grupo 1"
      ><path
        d="M105.309 49.446c0-13.884 12.492-25.139 27.901-25.139 15.41 0 27.902 11.255 27.902 25.139 0 13.883-12.492 25.138-27.902 25.138-15.409 0-27.901-11.255-27.901-25.139Z"
        fill="#4a1616"
        filter="url(#b)"
        opacity=".69"
        vectornator:blur="16.473"
        vectornator:layerName="Óvalo 2"></path><path
        d="M106.422 39.52c0-15.019 12.176-27.194 27.195-27.194 15.018 0 27.194 12.175 27.194 27.194 0 15.019-12.176 27.194-27.194 27.194-15.019 0-27.195-12.175-27.195-27.194Z"
        fill="url(#c)"
        stroke="#fd7e7e"
        stroke-linecap="butt"
        stroke-width=".904"
        vectornator:layerName="Óvalo 1"></path><path
        d="m133.615 22.833-15.282 8.312c-.375 16.73 14.907 25.063 14.907 25.063s16.144-8.854 15.656-24.782l-15.281-8.593Zm-2.063 8.843h4.188v5.72h5.718v4.218h-5.718v5.719h-4.188v-5.72h-5.75v-4.218h5.75v-5.719Z"
        fill="#fd7e7e"
        stroke="#fd7e7e"
        stroke-linecap="butt"
        stroke-width=".904"
        vectornator:layerName="Curva 1"></path></g><g vectornator:layerName="Grupo 2"
      ><path
        d="M56.354 48.307c0-11.245 10.118-20.361 22.6-20.361 12.48 0 22.599 9.116 22.599 20.361 0 11.245-10.118 20.362-22.6 20.362-12.481 0-22.6-9.116-22.6-20.362Z"
        fill="#164a36"
        filter="url(#d)"
        opacity=".69"
        vectornator:blur="16.473"
        vectornator:layerName="Óvalo 2"></path><path
        d="M57.256 40.268c0-12.165 9.861-22.027 22.026-22.027s22.027 9.862 22.027 22.027c0 12.165-9.862 22.026-22.027 22.026-12.165 0-22.026-9.861-22.026-22.026Z"
        fill="url(#e)"
        stroke="#7efdb7"
        stroke-linecap="butt"
        stroke-width=".904"
        vectornator:layerName="Óvalo 1"></path><path
        d="M77.47 28.627v1.969c-1.402.266-2.651.779-3.781 1.562l-1.375-1.375-2.532 2.532 1.375 1.375c-.773 1.125-1.269 2.389-1.53 3.781h-1.97v3.594h1.938a9.72 9.72 0 0 0 1.562 3.781l-1.375 1.375 2.532 2.563 1.375-1.376c1.126.779 2.385 1.267 3.78 1.532v1.968h3.626V49.94c1.396-.265 2.654-.753 3.781-1.532l1.375 1.375 2.531-2.562-1.375-1.375a9.72 9.72 0 0 0 1.563-3.781h1.937V38.47H88.94c-.263-1.392-.758-2.656-1.532-3.781l1.375-1.375-2.53-2.531-1.376 1.374c-1.13-.783-2.38-1.296-3.781-1.562v-1.969H77.47Zm1.812 5.063c3.625 0 6.563 2.968 6.563 6.593a6.562 6.562 0 0 1-6.563 6.563 6.562 6.562 0 0 1-6.562-6.563c0-3.625 2.937-6.593 6.562-6.593Z"
        fill="#75d49a"
        vectornator:layerName="Curva 1"></path></g><g vectornator:layerName="Grupo 3"
      ><path
        d="M165.221 48.307c0-11.245 10.118-20.361 22.599-20.361 12.482 0 22.6 9.116 22.6 20.361 0 11.245-10.118 20.362-22.6 20.362-12.481 0-22.599-9.116-22.599-20.362Z"
        fill="#2c467c"
        filter="url(#f)"
        opacity=".69"
        vectornator:blur="16.473"
        vectornator:layerName="Óvalo 2"></path><path
        d="M166.123 40.268c0-12.165 9.861-22.027 22.026-22.027s22.027 9.862 22.027 22.027c0 12.165-9.862 22.026-22.027 22.026-12.165 0-22.026-9.861-22.026-22.026Z"
        fill="url(#g)"
        stroke="#4585f4"
        stroke-linecap="butt"
        stroke-width=".904"
        vectornator:layerName="Óvalo 1"></path><path
        d="M175.718 35.293h25.319s1.309 5.362-.866 7.85c-2.174 2.49-4.685 3.1-7.476 1.664-2.791-1.436-2.271-5.263-4.758-5.286-2.488-.022-1.272 3.897-3.991 5.308-2.719 1.412-5.741.959-7.809-1.53-2.068-2.49-.419-8.006-.419-8.006Z"
        fill="#4585f4"
        stroke="#4585f4"
        stroke-linecap="butt"
        stroke-width=".904"
        vectornator:layerName="Curva 1"></path><path
        d="m175.448 33.72 25.859.124"
        fill="none"
        stroke="#4585f4"
        stroke-linecap="butt"
        stroke-width="1.566"
        vectornator:layerName="Curva 2"></path></g><g vectornator:layerName="Grupo 4"
      ><path
        d="M11.468 46.54c0-9.323 8.39-16.882 18.738-16.882 10.35 0 18.739 7.559 18.739 16.883 0 9.324-8.39 16.883-18.739 16.883-10.348 0-18.738-7.56-18.738-16.883Z"
        fill="#6c6627"
        filter="url(#h)"
        opacity=".69"
        vectornator:blur="16.473"
        vectornator:layerName="Óvalo 2"></path><path
        d="M15.162 41.75c0-10.087 8.177-18.264 18.263-18.264 10.087 0 18.264 8.177 18.264 18.264 0 10.086-8.177 18.263-18.264 18.263-10.086 0-18.263-8.177-18.263-18.263Z"
        fill="url(#i)"
        stroke="#fbd342"
        stroke-linecap="butt"
        stroke-width=".904"
        vectornator:layerName="Óvalo 1"></path><g
        vectornator:layerName="Grupo 4"
        fill="#fbd342"
        stroke="#fbd342"
        stroke-linecap="butt"
        stroke-width=".904"
        ><path
          d="m21.428 45.042 23.457-.122s-5.819 2.355-11.683 2.385c-5.864.03-11.774-2.263-11.774-2.263Z"
          vectornator:layerName="Curva 1"></path><path
          d="M30.492 31.814v1.5c-1.42.392-2.66 1.14-3.781 2.032l2.67 3.757-1.09.945-2.708-3.7c-1.843 1.865-2.872 4.183-2.872 7.06h20.906c0-2.829-.953-5.113-2.74-6.969l-2.625 3.51-1.155-.811 2.645-3.667c-1.215-1-2.578-1.829-4.156-2.22v-1.437h-5.094Z"
          vectornator:layerName="Curva 3"></path></g></g><g vectornator:layerName="Grupo 5"
      ><path
        d="M219.143 46.64c0-9.323 8.389-16.882 18.738-16.882s18.739 7.559 18.739 16.883c0 9.324-8.39 16.883-18.739 16.883s-18.738-7.56-18.738-16.883Z"
        fill="#6c4027"
        filter="url(#j)"
        opacity=".69"
        vectornator:blur="16.473"
        vectornator:layerName="Óvalo 2"></path><path
        d="M215.536 41.65c0-10.087 8.177-18.264 18.263-18.264 10.087 0 18.264 8.177 18.264 18.264 0 10.086-8.177 18.263-18.264 18.263-10.086 0-18.263-8.177-18.263-18.263Z"
        fill="url(#k)"
        stroke="#fb8b42"
        stroke-linecap="butt"
        stroke-width=".904"
        vectornator:layerName="Óvalo 1"></path><g
        vectornator:layerName="Grupo 5"
        fill="#fb8b42"
        ><path
          d="m229.966 46.542-2.784-6.422c-.973-2.17 1.587-2.676 2.066-1.733l1.241 1.83.086-6.279c.006-2.38 2.462-2.361 2.458.047l-.04 5.214.467.011.116-6.154c.018-1.3 2.155-1.347 2.119.034l-.163 6.118.476.011.143-5.227c.054-1.262 2.05-1.16 1.986.115l-.249 5.116.443.019.347-3.977c.077-1.409 2.007-1.298 1.956.072l-.847 11.247-9.821-.042Z"
          vectornator:layerName="Curva 3"></path><path
          d="m229.922 47.002 9.778.084.084 4.146-10.019-.01.157-4.22Z"
          vectornator:layerName="Curva 4"></path></g></g></g></svg>